<svg width="340" height="340" viewBox="0 0 340 340" fill="none" xmlns="http://www.w3.org/2000/svg">
<path d="M170 45C100.96 45 45 100.96 45 170C45 239.04 100.96 295 170 295C239.04 295 295 239.04 295 170C295 100.96 239.04 45 170 45ZM248.28 237.812L243.787 257.254L236.616 249.409C221.202 262.477 201.914 271.12 180.734 273.366L160.837 284.155L160.494 273.554C138.905 271.662 119.208 263.152 103.45 250.05L82.9559 244.849L90.6245 237.358C77.1463 221.467 68.36 201.46 66.4457 179.494L56.6745 161.69L66.4013 161.767C68.2051 139.823 76.8475 119.805 90.204 103.87L95.8919 83.5313L103.217 90.8569C119.363 77.3566 139.691 68.6699 161.966 67.0432L178.808 57.8585V67.1538C200.608 69.0571 220.471 77.7217 236.296 91.034L257.243 96.423L249.198 103.981C262.322 119.684 270.876 139.336 272.824 160.893L283.846 180.026L272.78 180.291C270.71 202.168 261.813 222.043 248.28 237.812Z" fill="#59D0D0"/>
<path d="M176.626 118.294C174.513 118.028 172.366 117.907 170.186 117.907C168.006 117.907 165.66 118.051 163.458 118.327C153.731 119.567 144.834 123.429 137.486 129.194C134.023 131.916 130.913 135.059 128.224 138.544L118.431 128.563L103.448 113.292L112.743 103.975L127.793 119.312C137.719 111.267 149.991 105.989 163.425 104.716L163.38 83.1377L176.549 83.3369L176.593 104.749L176.626 118.316V118.294Z" fill="#EABE66"/>
<path d="M117.69 163.721C117.369 166.067 117.203 168.446 117.203 170.88C117.203 172.905 117.314 174.919 117.546 176.889L103.294 176.989L82.7221 177.121L82.6226 163.953L103.449 163.809C104.644 152.931 108.45 142.839 114.227 134.175L124.54 143.957C121.032 149.899 118.653 156.572 117.69 163.71V163.721Z" fill="#EABE66"/>
<path d="M197.37 87.9728L192.363 100.032L204.422 105.04L209.43 92.9803L197.37 87.9728Z" fill="white"/>
<path d="M135.671 236.642L130.664 248.701L142.723 253.709L147.73 241.649L135.671 236.642Z" fill="white"/>
<path d="M142.794 87.9498L130.711 92.9004L135.662 104.983L147.745 100.033L142.794 87.9498Z" fill="white"/>
<path d="M204.508 236.628L192.425 241.579L197.375 253.662L209.458 248.711L204.508 236.628Z" fill="white"/>
<path d="M92.0095 130.856L87.0083 142.918L99.0704 147.919L104.072 135.857L92.0095 130.856Z" fill="white"/>
<path d="M87.0778 197.518L91.7637 209.706L103.952 205.02L99.2659 192.832L87.0778 197.518Z" fill="white"/>
<path d="M248.274 131.193L236.087 135.881L240.775 148.068L252.962 143.38L248.274 131.193Z" fill="white"/>
<path d="M241.023 193.432L235.949 205.463L247.98 210.538L253.055 198.506L241.023 193.432Z" fill="white"/>
<path d="M236.682 113.352L221.256 128.49L211.662 137.907C208.929 134.466 205.753 131.367 202.245 128.7C196.812 124.562 190.56 121.452 183.765 119.66L184.175 105.927C194.499 108.184 203.938 112.821 211.872 119.25L227.232 104.189L236.671 113.363L236.682 113.352Z" fill="#EABE66"/>
<path d="M257.365 163.718V176.887L236.439 177.031L222.806 177.119C223.049 175.072 223.171 172.991 223.171 170.889C223.171 168.543 223.016 166.23 222.717 163.962C221.799 156.946 219.508 150.351 216.122 144.475L226.17 135.224C231.57 143.667 235.133 153.405 236.273 163.862L257.342 163.718H257.365Z" fill="#EABE66"/>
<path d="M236.648 227.911L227.43 237.306L212.669 222.522L202.798 212.64C206.273 209.929 209.393 206.797 212.093 203.311C216.243 197.956 219.386 191.792 221.245 185.097L235.32 184.754C233.14 195.344 228.449 205.027 221.909 213.138L236.659 227.911H236.648Z" fill="#EABE66"/>
<path d="M207.576 226.369C200.505 231.205 192.46 234.724 183.795 236.56L183.663 222.131C188.565 220.847 193.19 218.877 197.429 216.332L207.576 226.369Z" fill="#EABE66"/>
<path d="M176.617 258.026H163.46L163.416 237.72C152.261 236.647 141.915 232.84 133.04 226.964L143.774 216.828C149.683 220.236 156.312 222.538 163.383 223.446C165.607 223.733 167.886 223.877 170.188 223.877C172.335 223.877 174.46 223.744 176.551 223.501L176.584 237.698L176.628 258.037L176.617 258.026Z" fill="#EABE66"/>
<path d="M137.464 212.557L127.206 222.626L112.887 236.669L103.758 227.186L117.944 213.276C111.272 205.054 106.524 195.227 104.355 184.449H118.951C120.777 191.354 123.953 197.717 128.191 203.206C130.88 206.692 133.99 209.834 137.453 212.568L137.464 212.557Z" fill="#EABE66"/>
<path d="M192.369 178.941C192.369 186.655 186.907 192.284 172.72 192.284H146.316V144.996H173.003C186.797 144.996 190.96 150.793 190.96 157.271C190.96 162.393 188.368 165.043 184.54 166.845V167.578C189.494 169.772 192.363 173.375 192.363 178.952L192.369 178.941ZM159.036 154.789V164.189H171.929C176.549 164.189 178.8 162.387 178.8 159.569C178.8 156.752 176.549 154.783 171.929 154.783H159.036V154.789ZM179.534 176.914C179.534 173.819 177.114 171.735 172.438 171.735H159.036V182.434H172.438C177.109 182.434 179.534 180.067 179.534 176.914Z" fill="#F1BD6C"/>
</svg>
